<?xml version="1.0" standalone="no"?>
<!DOCTYPE svg PUBLIC "-//W3C//DTD SVG 20010904//EN"
 "http://www.w3.org/TR/2001/REC-SVG-20010904/DTD/svg10.dtd">
<svg version="1.0" xmlns="http://www.w3.org/2000/svg"
 width="3000.000000pt" height="3000.000000pt" viewBox="0 0 3000.000000 3000.000000"
 preserveAspectRatio="xMidYMid meet">
<metadata>
Created by potrace 1.11, written by Peter Selinger 2001-2013
</metadata>
<g transform="translate(0.000000,3000.000000) scale(0.100000,-0.100000)"
fill="#000000" stroke="none">
<path d="M15090 24260 c-9 -6 -88 -187 -142 -325 -11 -27 -26 -63 -33 -80 -7
-16 -45 -109 -85 -205 -39 -96 -77 -188 -85 -205 -7 -16 -38 -93 -70 -170 -31
-77 -63 -153 -70 -170 -7 -16 -25 -59 -39 -95 -31 -75 -43 -103 -62 -145 -7
-16 -65 -158 -130 -315 -142 -348 -381 -928 -394 -955 -5 -11 -32 -76 -60
-145 -29 -69 -58 -138 -65 -155 -7 -16 -27 -64 -43 -105 -36 -92 -288 -698
-342 -825 -5 -11 -41 -99 -80 -195 -39 -96 -75 -184 -80 -195 -7 -16 -162
-389 -220 -530 -7 -16 -16 -39 -21 -50 -5 -11 -54 -130 -109 -265 -151 -366
-255 -618 -325 -785 -34 -82 -106 -256 -159 -385 -53 -129 -101 -244 -106
-255 -5 -11 -41 -99 -80 -195 -40 -96 -78 -188 -85 -205 -7 -16 -45 -106 -83
-200 -38 -93 -115 -278 -169 -410 -55 -132 -137 -330 -183 -440 -96 -233 -525
-1271 -577 -1395 -19 -47 -39 -94 -44 -105 -4 -11 -58 -141 -119 -290 -62
-148 -117 -283 -125 -300 -7 -16 -39 -93 -70 -170 -32 -77 -84 -203 -116 -280
-32 -77 -92 -223 -134 -325 -42 -102 -80 -194 -85 -205 -5 -11 -43 -103 -85
-204 -41 -102 -77 -186 -79 -188 -3 -3 -194 -45 -266 -58 -14 -2 -68 -14 -120
-25 -52 -11 -115 -25 -140 -30 -84 -17 -494 -109 -615 -138 -66 -16 -151 -37
-190 -45 -38 -9 -135 -32 -215 -51 -80 -19 -188 -44 -240 -56 -52 -11 -111
-25 -130 -30 -19 -6 -57 -15 -85 -21 -27 -6 -57 -12 -65 -14 -8 -2 -89 -20
-180 -40 -91 -20 -172 -39 -180 -41 -20 -5 -447 -92 -485 -99 -16 -3 -52 -10
-80 -15 -27 -5 -68 -12 -90 -15 -22 -3 -62 -10 -90 -15 -27 -5 -66 -12 -85
-15 -19 -3 -46 -7 -60 -10 -32 -5 -90 -14 -143 -20 -23 -3 -58 -7 -77 -10 -19
-2 -60 -7 -90 -11 -30 -3 -57 -8 -60 -9 -4 -2 -49 -7 -100 -10 -52 -4 -106 -8
-120 -11 -133 -21 -763 -21 -880 0 -14 3 -54 7 -90 10 -82 8 -274 39 -365 61
-38 9 -78 18 -87 20 -92 19 -335 98 -433 140 -179 76 -286 130 -432 218 -103
62 -288 192 -333 236 -14 12 -40 35 -59 50 -95 73 -282 287 -373 426 -120 184
-221 418 -264 615 -4 19 -9 42 -11 50 -2 8 -8 44 -13 79 -6 35 -12 66 -14 70
-2 3 -7 40 -11 81 -3 41 -9 89 -12 105 -2 17 -5 82 -5 145 1 459 251 737 772
860 52 12 106 24 120 26 382 64 735 246 964 496 189 206 329 506 381 813 3 17
7 44 10 60 19 106 25 382 12 495 -4 30 -9 75 -12 100 -7 51 -64 290 -73 305
-4 6 -7 15 -8 20 -1 6 -14 42 -29 80 -89 225 -188 343 -304 361 -58 10 -377
10 -456 1 -652 -76 -1253 -357 -1883 -882 -129 -108 -311 -292 -418 -425 -282
-350 -511 -819 -609 -1248 -30 -131 -59 -292 -69 -382 -3 -25 -8 -72 -12 -105
-13 -112 -6 -415 11 -503 2 -10 6 -44 9 -75 9 -86 65 -358 83 -407 4 -8 8 -25
10 -37 6 -37 90 -274 133 -376 43 -104 133 -284 175 -352 14 -22 28 -47 32
-55 14 -29 88 -148 156 -250 333 -498 729 -886 1182 -1159 128 -78 359 -193
470 -236 39 -14 84 -32 100 -40 141 -63 652 -205 795 -220 19 -3 46 -7 60 -10
14 -4 43 -9 65 -11 22 -3 47 -7 55 -9 8 -2 49 -7 90 -10 41 -4 89 -8 105 -10
187 -26 930 -26 1157 0 24 3 70 7 102 10 82 6 185 15 221 20 17 2 71 9 120 15
113 13 149 18 202 25 23 3 57 8 75 10 18 2 51 7 73 10 79 13 91 14 135 20 25
3 68 9 95 15 52 10 106 18 165 26 19 2 46 6 60 9 55 11 78 16 160 30 47 8 96
17 110 19 14 3 75 14 135 25 61 11 121 23 135 26 28 6 182 35 220 41 14 3 32
7 40 9 8 2 29 7 45 10 17 2 39 7 50 9 11 2 124 25 250 51 127 26 239 49 249
51 11 2 74 15 140 29 163 35 179 38 196 40 8 2 60 12 115 24 84 18 504 106
601 126 90 18 94 18 94 1 0 -14 -92 -249 -130 -331 -10 -23 -255 -617 -514
-1250 -97 -236 -182 -443 -190 -460 -7 -16 -18 -41 -23 -55 -6 -14 -20 -47
-32 -75 -11 -27 -64 -156 -117 -285 -53 -129 -102 -248 -109 -265 -7 -16 -39
-93 -70 -170 -32 -77 -111 -270 -177 -430 -66 -159 -145 -351 -175 -425 -30
-74 -61 -148 -68 -165 -26 -58 -376 -910 -378 -920 -1 -6 447 -10 1266 -10
l1267 -1 1 91 c1 132 -2 359 -5 362 -4 4 -93 14 -261 29 -33 3 -76 7 -95 9
-19 3 -69 7 -110 10 -41 3 -86 8 -100 10 -14 2 -61 6 -105 10 -44 3 -91 8
-105 10 -14 2 -65 6 -113 10 -49 4 -98 8 -110 10 -12 2 -38 6 -57 9 -68 10
-167 46 -208 76 -70 50 -112 134 -111 220 2 69 45 216 100 336 10 24 19 46 19
49 0 4 6 21 14 38 8 18 31 73 51 122 20 50 43 104 51 122 7 17 14 34 14 38 0
4 22 59 50 123 27 64 104 252 170 417 67 165 128 314 135 330 7 17 32 77 55
135 23 58 48 119 55 135 7 17 57 138 110 270 53 132 103 254 110 270 8 17 30
71 50 120 19 50 40 99 44 110 5 11 23 56 41 100 18 44 36 89 41 100 5 11 44
108 88 215 87 215 175 432 226 555 18 44 67 166 110 270 42 105 86 209 96 232
10 23 19 49 19 57 0 9 10 18 23 21 29 7 303 62 341 69 16 3 52 10 80 15 28 6
62 12 76 15 23 4 308 62 355 72 11 2 56 11 100 19 44 8 91 17 105 19 47 10
735 146 760 151 14 2 129 25 255 50 127 25 241 47 255 50 14 2 104 20 200 39
96 19 227 44 290 56 63 11 158 30 210 40 52 11 113 22 135 26 22 3 83 14 135
25 52 11 109 22 125 25 17 2 131 25 255 49 124 24 241 47 260 50 19 3 42 8 50
10 8 2 31 7 50 10 29 5 187 34 275 51 64 12 192 37 355 69 272 53 263 52 279
18 7 -15 49 -109 93 -208 44 -99 88 -198 98 -220 10 -22 55 -123 99 -225 45
-102 90 -203 100 -225 46 -98 73 -158 126 -280 31 -71 65 -148 75 -170 11 -22
110 -245 220 -495 111 -250 210 -473 220 -495 10 -22 46 -103 80 -180 34 -77
72 -164 86 -193 13 -29 67 -150 120 -270 53 -119 104 -235 114 -257 10 -22 72
-162 139 -312 66 -149 129 -291 140 -315 68 -150 81 -180 81 -183 0 -2 15 -36
34 -77 27 -58 159 -354 249 -558 9 -19 32 -70 51 -113 20 -43 36 -80 36 -82 0
-2 13 -32 29 -67 16 -35 120 -267 230 -516 111 -250 208 -466 215 -480 l14
-27 3071 0 3071 -1 0 228 c0 126 -3 228 -7 229 -16 2 -60 7 -123 13 -36 4 -76
9 -90 11 -14 2 -54 7 -90 10 -36 3 -81 8 -101 11 -40 5 -88 10 -176 19 -32 3
-68 7 -80 9 -12 3 -53 7 -90 10 -37 3 -79 8 -93 10 -14 2 -52 7 -85 11 -152
16 -291 74 -371 154 -83 83 -197 278 -303 521 -10 25 -28 65 -39 90 -11 25
-36 82 -56 128 -20 45 -51 117 -70 160 -19 42 -129 295 -246 562 -116 267
-225 513 -241 548 -16 35 -29 66 -29 68 0 3 -8 24 -19 47 -10 23 -28 62 -39
87 -11 25 -44 99 -72 165 -29 66 -60 138 -70 160 -10 22 -66 150 -125 285 -59
135 -132 301 -162 370 -30 69 -67 154 -83 190 -15 36 -36 85 -47 110 -40 87
-136 307 -195 445 -34 77 -73 167 -88 200 -15 33 -42 94 -59 135 -37 86 -56
128 -81 185 -10 22 -25 56 -33 75 -8 19 -26 60 -40 90 -14 30 -62 141 -107
245 -45 105 -94 215 -107 245 -14 30 -45 100 -68 155 -24 55 -120 276 -215
490 -94 215 -174 398 -177 407 -4 13 4 19 34 27 38 10 256 56 318 67 17 3 46
9 65 14 19 5 49 11 65 13 42 7 166 33 319 68 72 16 142 32 157 34 15 3 67 14
116 26 48 12 99 23 113 25 14 3 108 22 210 44 232 48 384 77 479 90 41 6 83
13 95 15 12 3 41 7 66 10 25 2 61 6 80 9 48 7 312 35 391 41 35 3 86 7 114 10
170 15 297 20 595 20 294 0 501 -7 565 -20 11 -2 47 -7 80 -10 453 -45 898
-205 1299 -467 49 -32 92 -58 97 -58 4 0 9 -3 11 -8 2 -4 30 -25 63 -46 142
-93 262 -183 380 -286 65 -58 227 -222 270 -274 22 -27 45 -54 50 -60 17 -18
125 -165 125 -171 0 -2 15 -28 34 -57 78 -124 152 -298 177 -421 17 -81 18
-248 3 -323 -30 -143 -101 -268 -219 -391 -69 -72 -188 -165 -255 -201 -35
-19 -64 -34 -200 -112 -310 -177 -536 -409 -675 -695 -52 -108 -107 -275 -120
-371 -4 -27 -10 -58 -13 -69 -12 -45 -10 -393 3 -475 32 -212 75 -364 155
-555 108 -255 288 -512 435 -620 22 -17 42 -33 45 -36 3 -4 31 -18 63 -33 72
-32 120 -33 234 -2 744 200 1400 764 1915 1646 85 147 188 351 188 373 0 7 4
17 9 22 13 14 84 224 114 335 23 84 50 207 63 280 2 14 6 36 9 50 3 14 7 48
11 75 3 28 7 61 10 75 21 122 21 608 0 730 -3 14 -7 52 -11 85 -3 33 -8 67
-10 75 -2 8 -6 32 -9 53 -34 224 -109 456 -215 663 -51 97 -197 322 -247 379
-14 17 -47 56 -72 87 -85 105 -301 310 -462 440 -266 213 -637 446 -1007 632
-450 225 -916 394 -1393 504 -189 44 -202 47 -300 62 -36 6 -76 13 -90 15 -47
9 -145 24 -195 30 -27 3 -61 7 -75 10 -14 2 -61 7 -105 11 -44 3 -93 8 -110 9
-251 25 -835 25 -1080 0 -22 -3 -67 -7 -100 -10 -33 -3 -71 -7 -85 -9 -14 -3
-50 -7 -80 -11 -192 -21 -425 -60 -1030 -171 -14 -3 -104 -21 -200 -40 -96
-20 -186 -38 -200 -40 -14 -3 -81 -17 -150 -30 -69 -14 -136 -28 -150 -31 -14
-2 -90 -18 -170 -35 -80 -16 -156 -32 -170 -34 -14 -2 -36 -7 -50 -10 -14 -3
-36 -7 -50 -9 -14 -2 -68 -13 -120 -24 -52 -11 -106 -22 -120 -25 -14 -2 -119
-23 -234 -46 -238 -48 -209 -54 -257 55 -14 33 -35 80 -46 105 -12 25 -35 79
-53 120 -30 70 -40 92 -89 203 -11 23 -56 128 -101 232 -45 105 -96 219 -112
255 -16 36 -48 108 -70 160 -22 52 -51 118 -63 145 -27 58 -333 759 -345 789
-4 12 -21 50 -38 86 -16 36 -53 119 -82 185 -28 66 -60 138 -70 160 -30 69
-89 203 -170 390 -43 99 -90 207 -105 240 -33 73 -24 52 -162 370 -36 83 -73
168 -83 190 -10 22 -176 402 -370 845 -194 443 -358 819 -365 835 -44 96 -135
306 -135 309 0 3 -15 37 -34 78 -19 40 -48 107 -66 148 -18 41 -40 93 -50 115
-10 22 -129 294 -265 605 -135 311 -254 583 -264 605 -10 22 -80 182 -156 355
-75 173 -145 333 -155 355 -10 22 -42 94 -70 160 -29 66 -65 148 -81 183 -16
35 -29 65 -29 68 0 2 -16 38 -35 80 -19 41 -35 77 -35 79 0 3 -11 28 -24 57
-13 29 -88 199 -166 378 -168 384 -174 397 -210 475 -15 33 -31 71 -35 84 -4
14 -15 39 -25 55 l-17 31 -367 0 c-202 1 -371 -2 -376 -5z m-1635 -6430 c48
-107 103 -228 121 -268 19 -41 34 -75 34 -77 0 -3 14 -35 31 -72 17 -38 67
-149 111 -248 44 -99 93 -208 109 -243 16 -35 29 -65 29 -67 0 -2 17 -41 39
-87 21 -45 54 -119 74 -163 19 -44 47 -107 62 -140 14 -33 32 -73 40 -90 7
-16 52 -118 100 -225 48 -107 153 -341 232 -520 80 -179 156 -350 170 -380 14
-30 105 -235 203 -455 258 -580 397 -891 431 -964 16 -35 28 -66 25 -68 -5 -5
-100 -30 -141 -36 -16 -3 -62 -12 -100 -21 -39 -8 -82 -17 -95 -20 -14 -2 -92
-19 -175 -36 -82 -18 -157 -33 -165 -35 -8 -2 -58 -13 -110 -24 -52 -11 -106
-22 -120 -25 -14 -2 -81 -16 -150 -30 -69 -14 -136 -27 -150 -30 -14 -2 -36
-7 -50 -10 -14 -3 -36 -8 -50 -10 -14 -2 -72 -14 -130 -25 -152 -31 -152 -31
-185 -36 -16 -3 -61 -12 -100 -20 -77 -17 -370 -73 -424 -81 -18 -3 -43 -8
-55 -10 -35 -8 -119 -23 -156 -29 -19 -3 -69 -12 -110 -20 -41 -8 -91 -17
-110 -20 -19 -3 -82 -15 -140 -26 -58 -11 -120 -22 -139 -25 -18 -3 -43 -7
-55 -10 -65 -12 -255 -46 -280 -49 -15 -3 -35 -6 -45 -9 -9 -3 -36 -8 -61 -11
-25 -3 -83 -13 -130 -21 -46 -9 -96 -17 -110 -19 -14 -2 -41 -6 -60 -10 -19
-3 -48 -8 -65 -11 -16 -3 -41 -7 -55 -9 -14 -2 -34 -6 -45 -8 -91 -19 -296
-49 -300 -45 -3 3 3 25 14 49 47 106 61 140 61 152 0 7 4 17 9 22 4 6 20 39
34 75 14 36 58 144 97 240 40 96 90 220 112 275 22 55 51 127 65 160 38 90 40
96 64 155 12 30 27 69 34 85 16 37 225 548 271 665 19 47 39 94 44 105 5 11
34 82 65 158 30 75 80 199 110 275 31 75 60 146 65 157 5 11 82 198 170 415
89 217 229 562 312 765 82 204 161 395 174 425 12 30 93 226 178 435 167 412
173 426 192 470 7 17 16 43 20 60 7 29 8 28 40 -40 18 -39 72 -158 119 -265z"/>
</g>
</svg>
