<svg width="100px" height="34px" viewBox="0 0 100 34" xmlns="http://www.w3.org/2000/svg" xml:space="preserve">
    <path fill="#fff" d="M83.449,30.32c0.096,0 0.182,-0.005 0.26,-0.015c0.079,-0.009 0.151,-0.024 0.218,-0.043c0.068,-0.02 0.131,-0.043 0.192,-0.072c0.06,-0.028 0.121,-0.059 0.182,-0.095l0,-0.744l-0.531,0c-0.014,0 -0.026,-0.004 -0.036,-0.014c-0.01,-0.008 -0.015,-0.019 -0.015,-0.031l0,-0.109l0.764,0l0,0.982c-0.069,0.049 -0.14,0.092 -0.215,0.13c-0.074,0.037 -0.154,0.068 -0.238,0.094c-0.085,0.026 -0.176,0.045 -0.273,0.059c-0.098,0.014 -0.205,0.021 -0.322,0.021c-0.198,0 -0.381,-0.034 -0.546,-0.101c-0.164,-0.067 -0.305,-0.163 -0.424,-0.286c-0.118,-0.122 -0.209,-0.272 -0.274,-0.446c-0.065,-0.175 -0.098,-0.368 -0.098,-0.583c0,-0.213 0.033,-0.407 0.098,-0.581c0.065,-0.173 0.157,-0.322 0.277,-0.445c0.12,-0.123 0.266,-0.218 0.437,-0.286c0.172,-0.067 0.364,-0.101 0.576,-0.101c0.105,0 0.203,0.008 0.292,0.022c0.089,0.015 0.172,0.036 0.249,0.064c0.077,0.028 0.149,0.062 0.215,0.104c0.067,0.041 0.13,0.087 0.192,0.141l-0.053,0.086c-0.012,0.019 -0.028,0.03 -0.049,0.03c-0.012,0 -0.023,-0.003 -0.034,-0.008c-0.019,-0.008 -0.048,-0.026 -0.085,-0.056c-0.036,-0.028 -0.087,-0.058 -0.15,-0.089c-0.063,-0.031 -0.142,-0.059 -0.237,-0.084c-0.096,-0.025 -0.211,-0.038 -0.347,-0.038c-0.179,0 -0.341,0.029 -0.486,0.086c-0.144,0.058 -0.268,0.14 -0.37,0.247c-0.102,0.107 -0.181,0.237 -0.237,0.391c-0.054,0.153 -0.082,0.326 -0.082,0.517c0,0.196 0.028,0.371 0.083,0.526c0.057,0.155 0.135,0.287 0.236,0.394c0.101,0.107 0.222,0.19 0.363,0.247l0.468,0.086Zm-28.773,0.131l-1.009,0l0,-2.765l1.009,0c0.197,0 0.375,0.032 0.537,0.096c0.161,0.063 0.3,0.156 0.416,0.275c0.116,0.12 0.206,0.265 0.27,0.436c0.063,0.17 0.095,0.362 0.095,0.574c0,0.215 -0.032,0.407 -0.095,0.577c-0.064,0.171 -0.154,0.316 -0.27,0.436c-0.116,0.119 -0.255,0.211 -0.416,0.276c-0.162,0.063 -0.34,0.095 -0.537,0.095Zm12.559,0l-1.008,0l0,-2.765l1.008,0c0.196,0 0.376,0.032 0.537,0.096c0.162,0.063 0.301,0.156 0.416,0.275c0.116,0.12 0.206,0.265 0.27,0.436c0.063,0.17 0.096,0.362 0.096,0.574c0,0.215 -0.033,0.407 -0.096,0.577c-0.064,0.171 -0.154,0.316 -0.27,0.436c-0.115,0.119 -0.254,0.211 -0.416,0.276c-0.161,0.063 -0.341,0.095 -0.537,0.095Zm9.551,0l-1.008,0l0,-2.765l1.008,0c0.197,0 0.376,0.032 0.537,0.096c0.162,0.063 0.301,0.156 0.416,0.275c0.117,0.12 0.206,0.265 0.27,0.436c0.064,0.17 0.096,0.362 0.096,0.574c0,0.215 -0.032,0.407 -0.096,0.577c-0.064,0.171 -0.153,0.316 -0.27,0.436c-0.115,0.119 -0.254,0.211 -0.416,0.276c-0.161,0.063 -0.34,0.095 -0.537,0.095Zm-12.17,0l-0.155,0c-0.018,0 -0.033,-0.005 -0.044,-0.015c-0.012,-0.009 -0.021,-0.022 -0.028,-0.038l-0.326,-0.803l-1.358,0l-0.324,0.803c-0.005,0.015 -0.015,0.027 -0.028,0.038c-0.013,0.01 -0.029,0.015 -0.047,0.015l-0.152,0l1.132,-2.765l0.198,0l1.132,2.765Zm-16.685,0l-0.155,0c-0.018,0 -0.033,-0.005 -0.045,-0.015c-0.011,-0.009 -0.021,-0.022 -0.027,-0.038l-0.327,-0.803l-1.358,0l-0.324,0.803c-0.006,0.015 -0.014,0.027 -0.027,0.038c-0.013,0.01 -0.029,0.015 -0.047,0.015l-0.153,0l1.131,-2.765l0.2,0l1.132,2.765Zm46.082,0l-0.155,0c-0.018,0 -0.033,-0.005 -0.044,-0.015c-0.012,-0.009 -0.021,-0.022 -0.028,-0.038l-0.326,-0.803l-1.358,0l-0.324,0.803c-0.005,0.015 -0.015,0.027 -0.028,0.038c-0.013,0.01 -0.028,0.015 -0.047,0.015l-0.152,0l1.132,-2.765l0.199,0l1.131,2.765Zm-7.381,0l-0.201,0l0,-2.765l0.201,0l0,2.765Zm-27.427,-0.481l-0.031,0c-0.033,0 -0.059,-0.016 -0.078,-0.05l-1.118,-1.935c0.004,0.038 0.006,0.074 0.006,0.11l0,2.356l-0.174,0l0,-2.765l0.136,0c0.019,0 0.033,0.002 0.045,0.006c0.011,0.004 0.021,0.015 0.032,0.031l1.116,1.923c0.02,0.037 0.036,0.076 0.051,0.118c0.008,-0.021 0.015,-0.042 0.024,-0.062c0.009,-0.02 0.017,-0.04 0.028,-0.058l1.087,-1.921c0.01,-0.016 0.021,-0.027 0.031,-0.031c0.011,-0.004 0.025,-0.006 0.043,-0.006l0.139,0l0,2.765l-0.177,0l0,-2.356c0,-0.034 0.003,-0.071 0.007,-0.108l-1.088,1.933c-0.019,0.034 -0.045,0.05 -0.079,0.05Zm20.989,0.481l-0.201,0l0,-2.765l0.201,0l0,2.765Zm16.94,0l-1.51,0l0,-2.765l0.199,0l0,2.595l1.311,0l0,0.17Zm-25.108,0l-1.657,0l0,-2.765l1.657,0l0,0.166l-1.456,0l0,1.118l1.212,0l0,0.162l-1.212,0l0,1.153l1.456,0l0,0.166Zm-20.352,0l-0.096,0c-0.029,0 -0.054,-0.013 -0.072,-0.039l-1.798,-2.4c0.004,0.039 0.006,0.077 0.006,0.112l0,2.327l-0.174,0l0,-2.765l0.098,0c0.018,0 0.033,0.002 0.043,0.007c0.01,0.005 0.022,0.014 0.033,0.03l1.79,2.396c-0.004,-0.039 -0.006,-0.077 -0.006,-0.113l0,-2.32l0.176,0l0,2.765Zm-9.75,0l-0.202,0l0,-2.765l0.202,0l0,1.29l1.731,0l0,-1.29l0.201,0l0,2.765l-0.201,0l0,-1.325l-1.731,0l0,1.325Zm47.61,0l-0.199,0l0,-2.595l-0.977,0l0,-0.17l2.148,0l0,0.17l-0.972,0l0,2.595Zm-12.748,-2.603l-0.807,0l0,2.441l0.807,0c0.167,0 0.319,-0.027 0.455,-0.082c0.137,-0.055 0.254,-0.134 0.351,-0.239c0.097,-0.104 0.172,-0.231 0.225,-0.382l0.081,-0.519c0,-0.193 -0.027,-0.365 -0.081,-0.516c-0.053,-0.151 -0.128,-0.278 -0.225,-0.383c-0.097,-0.104 -0.214,-0.183 -0.351,-0.237c-0.136,-0.055 -0.288,-0.083 -0.455,-0.083Zm-9.551,0l-0.808,0l0,2.441l0.808,0c0.166,0 0.318,-0.027 0.455,-0.082c0.137,-0.055 0.253,-0.134 0.35,-0.239c0.098,-0.104 0.173,-0.231 0.226,-0.382l0.08,-0.519c0,-0.193 -0.026,-0.365 -0.08,-0.516c-0.053,-0.151 -0.128,-0.278 -0.226,-0.383c-0.097,-0.104 -0.213,-0.183 -0.35,-0.237c-0.137,-0.055 -0.289,-0.083 -0.455,-0.083Zm-12.559,0l-0.807,0l0,2.441l0.807,0c0.166,0 0.318,-0.027 0.455,-0.082c0.137,-0.055 0.254,-0.134 0.35,-0.239c0.098,-0.104 0.173,-0.231 0.226,-0.382l0.081,-0.519c0,-0.193 -0.027,-0.365 -0.081,-0.516c-0.053,-0.151 -0.128,-0.278 -0.226,-0.383c-0.096,-0.104 -0.213,-0.183 -0.35,-0.237c-0.137,-0.055 -0.289,-0.083 -0.455,-0.083Zm37.487,1.599l1.239,0l-0.566,-1.397c-0.008,-0.023 -0.018,-0.047 -0.026,-0.076c-0.01,-0.028 -0.019,-0.057 -0.028,-0.089c-0.009,0.032 -0.018,0.061 -0.027,0.089c-0.01,0.029 -0.018,0.054 -0.028,0.077l-0.564,1.396Zm-46.084,0l1.239,0l-0.564,-1.397c-0.01,-0.023 -0.018,-0.047 -0.028,-0.076c-0.008,-0.028 -0.018,-0.057 -0.027,-0.089c-0.009,0.032 -0.018,0.061 -0.027,0.089c-0.009,0.029 -0.019,0.054 -0.027,0.077l-0.566,1.396Zm16.686,0l1.24,0l-0.566,-1.397c-0.008,-0.023 -0.018,-0.047 -0.027,-0.076c-0.009,-0.028 -0.018,-0.057 -0.027,-0.089c-0.009,0.032 -0.019,0.061 -0.027,0.089c-0.01,0.029 -0.019,0.054 -0.028,0.077l-0.565,1.396Zm-52.122,-10.752l-3.043,3.912c-0.502,0.647 -0.768,1.189 -0.799,1.627c-0.062,0.894 0.777,1.409 2.519,1.542l-0.154,0.571c-1.957,-0.058 -3.306,-0.086 -4.048,-0.086c-0.647,0 -1.268,0.028 -1.862,0.086l0.154,-0.571c0.544,-0.153 1.065,-0.457 1.563,-0.914c0.498,-0.457 1.217,-1.285 2.158,-2.483l12.794,-16.388c0.454,0.038 0.814,0.057 1.08,0.057c0.286,0 0.64,-0.019 1.061,-0.057l-0.113,17.957c0.013,0.629 0.142,1.086 0.389,1.371c0.246,0.285 0.54,0.438 0.882,0.457l-0.155,0.571c-1.1,-0.058 -2.706,-0.086 -4.819,-0.086c-2.207,0 -3.827,0.028 -4.859,0.086l0.154,-0.571c0.65,-0.038 1.16,-0.119 1.53,-0.243c0.371,-0.124 0.644,-0.352 0.819,-0.685c0.176,-0.333 0.267,-0.823 0.274,-1.47l0.071,-4.683l-5.596,0Zm53.911,5.241c0.879,0.567 1.772,0.94 2.679,1.119c0.307,0.063 0.619,0.094 0.937,0.094c0.315,0 0.644,-0.031 0.981,-0.09c0.339,-0.058 0.637,-0.157 0.897,-0.294c0.586,-0.313 0.88,-0.792 0.88,-1.438c0,-0.668 -0.492,-1.133 -1.476,-1.399c-0.288,-0.075 -0.595,-0.144 -0.922,-0.205l-1.014,-0.177c-1.29,-0.222 -2.19,-0.549 -2.7,-0.978c-0.473,-0.393 -0.709,-0.922 -0.709,-1.589c0,-0.908 0.434,-1.642 1.304,-2.205c0.776,-0.505 1.69,-0.758 2.744,-0.758c1.012,0 1.922,0.164 2.73,0.496c0.288,0.114 0.588,0.255 0.9,0.426l-0.482,1.155c-0.685,-0.412 -1.493,-0.679 -2.424,-0.801c-0.295,-0.044 -0.578,-0.063 -0.852,-0.063c-0.628,0 -1.184,0.119 -1.665,0.36c-0.563,0.284 -0.845,0.677 -0.845,1.177c0,0.53 0.358,0.918 1.07,1.163c0.323,0.114 0.686,0.206 1.094,0.276l1.261,0.221c1.064,0.198 1.8,0.424 2.212,0.673c0.411,0.25 0.716,0.532 0.911,0.84c0.196,0.311 0.296,0.722 0.296,1.234c0,0.513 -0.121,0.973 -0.363,1.379c-0.242,0.407 -0.563,0.743 -0.963,1.006c-0.785,0.525 -1.785,0.789 -3.001,0.789c-1.135,0 -2.199,-0.247 -3.197,-0.738c-0.326,-0.161 -0.629,-0.345 -0.907,-0.554l0.624,-1.119Zm-11.785,-7.779l1.312,0l0,5.198c0,1.824 0.608,3.004 1.822,3.538c0.415,0.18 0.907,0.269 1.474,0.269c0.568,0 1.052,-0.082 1.451,-0.248c0.398,-0.166 0.728,-0.404 0.988,-0.716c0.507,-0.601 0.76,-1.478 0.76,-2.63l0,-5.411l1.311,0l0,5.198c0,2.406 -0.867,3.954 -2.603,4.644c-0.576,0.227 -1.243,0.341 -1.999,0.341c-0.756,0 -1.414,-0.11 -1.974,-0.331c-0.561,-0.22 -1.028,-0.535 -1.4,-0.947c-0.761,-0.831 -1.142,-1.997 -1.142,-3.494l0,-5.411Zm-9.701,10.04l-1.346,0l4.693,-10.04l0.745,0l4.346,10.04l-1.432,0l-0.949,-2.197l-5.028,0l-1.029,2.197Zm42.672,0l-1.313,0l0,-10.04l1.313,0l0,10.04Zm3.778,0l-1.169,0l0,-10.04l1.148,0l6.468,7.927l0,-7.927l1.169,0l0,10.04l-1.099,0l-6.517,-7.983l0,7.983Zm-10.643,0l-1.311,0l0,-8.849l-3.773,0l0,-1.191l8.857,0l0,1.191l-3.773,0l0,8.849Zm-52.18,-1.979c-1.218,0 -2.127,-0.314 -2.726,-0.942c-0.6,-0.628 -0.9,-1.456 -0.9,-2.484c0,-0.857 0.224,-1.565 0.671,-2.127c0.448,-0.561 0.99,-0.995 1.627,-1.299c0.638,-0.304 1.452,-0.628 2.442,-0.97c1.046,-0.363 1.812,-0.691 2.298,-0.985c0.485,-0.296 0.728,-0.7 0.728,-1.214l0,-2.227c0,-0.799 -0.186,-1.423 -0.557,-1.87c-0.371,-0.447 -0.947,-0.671 -1.727,-0.671c-0.914,0 -1.608,0.229 -2.084,0.685c0.533,0.191 0.947,0.476 1.241,0.857c0.296,0.381 0.443,0.828 0.443,1.342c0,0.647 -0.219,1.161 -0.657,1.541c-0.438,0.381 -0.97,0.572 -1.598,0.572c-0.667,0 -1.18,-0.21 -1.542,-0.629c-0.361,-0.419 -0.542,-0.942 -0.542,-1.57c0,-0.533 0.128,-0.985 0.385,-1.356c0.257,-0.371 0.652,-0.718 1.185,-1.042c0.514,-0.304 1.146,-0.543 1.898,-0.714c0.752,-0.171 1.575,-0.257 2.47,-0.257c0.932,0 1.741,0.095 2.427,0.286c0.685,0.19 1.256,0.514 1.713,0.97c0.418,0.419 0.699,0.933 0.842,1.542c0.143,0.609 0.214,1.437 0.214,2.484l0,7.765c0,0.457 0.043,0.781 0.128,0.971c0.086,0.19 0.253,0.286 0.5,0.286c0.285,0 0.628,-0.162 1.027,-0.486l0.286,0.486c-0.856,0.704 -1.903,1.056 -3.14,1.056c-1.047,0 -1.78,-0.209 -2.198,-0.628c-0.419,-0.419 -0.638,-0.981 -0.657,-1.685c-0.944,1.53 -2.329,2.301 -4.197,2.313Zm20.075,-6.203l-0.085,0c-0.037,0.19 -0.122,0.458 -0.256,0.808c0,0 -0.121,0.307 -0.361,0.922c-0.108,0.266 -0.227,0.534 -0.355,0.809l-1.055,2.255l3.956,0l-0.907,-2.107c-0.114,-0.264 -0.226,-0.538 -0.334,-0.821l-0.283,-0.803c-0.181,-0.52 -0.287,-0.873 -0.32,-1.063Zm-17.876,4.376c0.742,0 1.389,-0.39 1.941,-1.171l0,-5.853c-0.229,0.381 -0.714,0.8 -1.456,1.257c-0.743,0.476 -1.304,0.951 -1.685,1.427c-0.38,0.476 -0.571,1.161 -0.571,2.056c0,0.78 0.162,1.356 0.486,1.727c0.323,0.371 0.751,0.557 1.285,0.557Zm-12.644,-4.266l0.133,-6.795l-5.3,6.795l5.167,0Zm59.947,-5.479c-0.505,-0.46 -0.902,-1.007 -1.196,-1.641c-0.292,-0.635 -0.438,-1.275 -0.438,-1.918c0,-0.643 0.067,-1.201 0.2,-1.674c0.133,-0.471 0.323,-0.907 0.569,-1.307c0.248,-0.399 0.543,-0.759 0.887,-1.079c0.344,-0.319 0.726,-0.591 1.148,-0.813c0.879,-0.466 1.842,-0.697 2.882,-0.697c0.998,0 1.928,0.222 2.789,0.668c0.837,0.436 1.506,1.042 2.005,1.816c0.508,0.808 0.761,1.706 0.761,2.694c0,1.564 -0.551,2.859 -1.656,3.885c-0.691,0.645 -1.526,1.088 -2.505,1.33c-0.488,0.12 -1.056,0.181 -1.699,0.181c-0.645,0 -1.302,-0.127 -1.975,-0.382l-1.772,-1.063Zm13.137,1.299l-1.198,0l0,-10.283l1.177,0l6.623,8.119l0,-8.119l1.198,0l0,10.283l-1.126,0l-6.674,-8.177l0,8.177Zm-16.84,0l-1.562,0l-1.765,-3.579c-0.48,0.072 -0.981,0.109 -1.504,0.109l-2.672,0l0,3.47l-1.343,0l0,-10.283l4.218,0c1.521,0 2.656,0.208 3.406,0.624c0.915,0.505 1.373,1.351 1.373,2.543c0,1.524 -0.702,2.578 -2.106,3.158l1.955,3.958Zm-29.391,0l-1.381,0l4.808,-10.283l0.762,0l4.451,10.283l-1.467,0l-0.972,-2.25l-5.15,0l-1.051,2.25Zm10.385,0l-1.381,0l4.809,-10.283l0.761,0l4.452,10.283l-1.468,0l-0.972,-2.25l-5.15,0l-1.051,2.25Zm23.703,-8.09c-0.371,0.353 -0.667,0.773 -0.881,1.257c-0.217,0.484 -0.324,1.016 -0.324,1.598c0,0.58 0.111,1.126 0.335,1.634c0.221,0.508 0.526,0.951 0.914,1.328c0.828,0.81 1.833,1.213 3.014,1.213c1.148,0 2.12,-0.377 2.92,-1.133c0.808,-0.765 1.212,-1.711 1.212,-2.839c0,-0.765 -0.194,-1.474 -0.58,-2.128c-0.364,-0.619 -0.874,-1.118 -1.534,-1.495c-0.648,-0.379 -1.312,-0.568 -1.988,-0.568c-0.678,0 -1.268,0.1 -1.769,0.302c-0.502,0.201 -0.94,0.478 -1.319,0.831Zm-30.298,-0.29l-0.087,0c-0.039,0.194 -0.126,0.469 -0.263,0.828c0,0 -0.122,0.314 -0.369,0.944c-0.111,0.272 -0.233,0.547 -0.364,0.828l-1.081,2.31l4.052,0l-0.929,-2.158c-0.117,-0.27 -0.231,-0.551 -0.342,-0.841l-0.29,-0.823c-0.185,-0.532 -0.294,-0.894 -0.327,-1.088Zm10.385,0l-0.087,0c-0.039,0.194 -0.126,0.469 -0.262,0.828c0,0 -0.122,0.314 -0.37,0.944c-0.111,0.272 -0.233,0.547 -0.364,0.828l-1.081,2.31l4.052,0l-0.929,-2.158c-0.116,-0.27 -0.231,-0.551 -0.342,-0.841l-0.29,-0.823c-0.185,-0.532 -0.294,-0.894 -0.327,-1.088Zm10.378,-0.684l-2.665,0l0,4.372l2.853,0c1.085,0 1.889,-0.149 2.412,-0.449c0.645,-0.373 0.966,-1.003 0.966,-1.888c0,-1.153 -0.746,-1.806 -2.238,-1.961c-0.43,-0.048 -0.874,-0.074 -1.328,-0.074Z" />
</svg>