<svg width="106" height="28" viewBox="0 0 106 28" xmlns="http://www.w3.org/2000/svg" xml:space="preserve">
    <path fill="#fff" d="M14,0c-7.7,0 -14,6.3 -14,14c0,7.7 6.3,14 14,14c7.7,0 14,-6.3 14,-14c0,-7.7 -6.3,-14 -14,-14Zm84.1,27.3l-3.2,0l3.6,-6.8l-4.8,-8.5l3.3,0l3.1,5.7l2.8,-5.7l3.2,0l-8,15.3Zm-91.9,-5.5c-2.1,-2.1 -3.2,-4.9 -3.2,-7.6l10.9,10.8c-2.8,-0.1 -5.6,-1.1 -7.7,-3.2Zm10.2,2.9l-13.1,-13.1c1.1,-4.9 5.5,-8.6 10.7,-8.6c3.7,0 6.9,1.8 8.9,4.5l-1.5,1.3c-1.7,-2.3 -4.4,-3.8 -7.4,-3.8c-3.9,0 -7.2,2.5 -8.5,6l11.5,11.5c2.9,-1 5.1,-3.5 5.8,-6.5l-4.8,0l0,-2l7,0c0,5.2 -3.7,9.6 -8.6,10.7Zm37.6,-11c0,0.2 0.1,0.4 0,0.7c0,4.5 -3.4,8.1 -8,8.1c-4.6,0 -8,-3.6 -8,-8.1c0,-4.5 3.6,-8.1 8,-8.1c2.6,0 5,1.2 6.5,3.3l-2.3,1.5c-1,-1.3 -2.6,-2.1 -4.2,-2.1c-2.9,0 -4.9,2.5 -4.9,5.4c0,2.9 2.1,5.3 5,5.3c2.6,0 4,-1.3 4.6,-3.2l-3.7,0l0,-2.8l7,0Zm11.7,8.3l-2.8,0l0,-1.3c-1,1.5 -2.3,1.6 -3.1,1.6c-3.1,0 -5.1,-2.4 -5.1,-5.3c0,-3 2,-5.3 4.9,-5.3c0.8,0 2.3,0.1 3.2,1.6l0,-1.3l2.9,0l0,10Zm14,-7.6c-0.7,-0.6 -1.3,-0.7 -1.6,-0.7c-0.7,0 -1.1,0.3 -1.1,0.8c0,0.3 0.1,0.6 0.9,0.9l0.7,0.2c0.8,0.3 2,0.6 2.5,1.4c0.3,0.4 0.5,1 0.5,1.7c0,0.9 -0.3,1.8 -1.1,2.5c-0.8,0.7 -1.8,1.1 -3,1.1c-2.1,0 -3.2,-1 -3.9,-1.7l1.5,-1.7c0.6,0.6 1.4,1.2 2.2,1.2c0.8,0 1.4,-0.4 1.4,-1.1c0,-0.6 -0.5,-0.9 -0.9,-1l-0.6,-0.2c-0.7,-0.3 -1.5,-0.6 -2.1,-1.2c-0.5,-0.5 -0.8,-1.1 -0.8,-1.9c0,-1 0.5,-1.8 1,-2.3c0.8,-0.6 1.8,-0.7 2.6,-0.7c0.7,0 1.9,0.1 3.2,1.1l-1.4,1.6Zm6,7.6l-2.7,0l0,-16.8l2.8,0l0,8.1c1,-1.4 2.4,-1.6 3.2,-1.6c2.9,0 4.9,2.3 4.9,5.3c0,3 -2,5.3 -5,5.3c-0.6,0 -2.1,-0.1 -3.2,-1.6l0,1.3Zm-14.5,-10l1.9,0l0,2.4l-1.9,0l0,7.6l-2.8,0l0,-7.6l-1.1,0l0,-2.4l1.1,0l0,-3.4l2.8,0l0,3.4Zm-13.5,5c0,1.6 1.1,2.8 2.8,2.8c1.6,0 2.8,-1.2 2.8,-2.8c0,-1.6 -1.1,-2.8 -2.8,-2.8c-1.6,0 -2.8,1.2 -2.8,2.8Zm27.8,0c0,1.6 1.1,2.8 2.8,2.8c1.6,0 2.8,-1.2 2.8,-2.8c0,-1.6 -1.1,-2.8 -2.8,-2.8c-1.7,0 -2.8,1.2 -2.8,2.8Z" />
</svg>